<mxfile host="app.diagrams.net" modified="2023-05-24T18:53:45.555Z" agent="Mozilla/5.0 (Windows NT 10.0; Win64; x64) AppleWebKit/537.36 (KHTML, like Gecko) Chrome/113.0.0.0 Safari/537.36" etag="2WbqERxw1Rh7ib-7jMEz" version="21.3.3" type="device">
  <diagram name="Page-1" id="c7488fd3-1785-93aa-aadb-54a6760d102a">
    <mxGraphModel dx="880" dy="484" grid="1" gridSize="10" guides="1" tooltips="1" connect="1" arrows="1" fold="1" page="1" pageScale="1" pageWidth="1100" pageHeight="850" background="none" math="0" shadow="0">
      <root>
        <mxCell id="0" />
        <mxCell id="1" parent="0" />
        <mxCell id="DFCnul8Yd47tiJNEgvmW-1" value="" style="edgeStyle=orthogonalEdgeStyle;rounded=0;orthogonalLoop=1;jettySize=auto;html=1;" parent="1" source="t1Hz0la7LcEe4WgIQ1-z-6" target="t1Hz0la7LcEe4WgIQ1-z-11" edge="1">
          <mxGeometry relative="1" as="geometry">
            <Array as="points">
              <mxPoint x="350" y="358" />
              <mxPoint x="350" y="358" />
            </Array>
          </mxGeometry>
        </mxCell>
        <mxCell id="t1Hz0la7LcEe4WgIQ1-z-6" value="&lt;h1 style=&quot;line-height: 90%;&quot;&gt;&lt;font style=&quot;font-size: 18px;&quot;&gt;Coleta de Dados&lt;/font&gt;&lt;/h1&gt;&lt;p style=&quot;text-align: justify; line-height: 90%;&quot;&gt;&lt;b&gt;realizar a coleta das informações relevantes para o estudo&lt;/b&gt;&lt;/p&gt;" style="text;html=1;strokeColor=none;fillColor=none;spacing=5;spacingTop=-20;whiteSpace=wrap;overflow=hidden;rounded=0;" parent="1" vertex="1">
          <mxGeometry x="140" y="310" width="150" height="100" as="geometry" />
        </mxCell>
        <mxCell id="VoEPPyW-J9t-Lt_fE6yJ-1" value="" style="edgeStyle=orthogonalEdgeStyle;rounded=0;orthogonalLoop=1;jettySize=auto;html=1;entryX=-0.019;entryY=0.385;entryDx=0;entryDy=0;entryPerimeter=0;" edge="1" parent="1" source="t1Hz0la7LcEe4WgIQ1-z-11" target="HYtzGYNjOnpyztXT4S6m-1">
          <mxGeometry relative="1" as="geometry" />
        </mxCell>
        <mxCell id="t1Hz0la7LcEe4WgIQ1-z-11" value="&lt;h1 style=&quot;line-height: 90%;&quot;&gt;&lt;font style=&quot;font-size: 18px;&quot;&gt;Pré -processamento&lt;/font&gt;&lt;/h1&gt;&lt;p style=&quot;text-align: justify; line-height: 90%;&quot;&gt;&lt;b&gt;Realizar o pré-processamento dos dados coletados para resolver os problemas de&amp;nbsp; normalização de texto&lt;/b&gt;&lt;/p&gt;&lt;span style=&quot;box-sizing: border-box; cursor: text; position: absolute; transform-origin: 0px 0px; background-color: rgb(255, 255, 255); left: 273.68px; top: 924.756px; transform: scaleX(0.931722); line-height: 90%;&quot; dir=&quot;ltr&quot; role=&quot;presentation&quot;&gt;&lt;b style=&quot;color: transparent; font-family: sans-serif; font-size: 15.092px;&quot;&gt; ̧&lt;/b&gt;&lt;div style=&quot;text-align: justify;&quot;&gt;&lt;font face=&quot;sans-serif&quot; color=&quot;rgba(0, 0, 0, 0)&quot;&gt;&lt;span style=&quot;font-size: 15.092px;&quot;&gt;&lt;b&gt;&lt;br&gt;&lt;/b&gt;&lt;/span&gt;&lt;/font&gt;&lt;/div&gt;&lt;div style=&quot;&quot;&gt;&lt;font face=&quot;sans-serif&quot; color=&quot;rgba(0, 0, 0, 0)&quot;&gt;&lt;span style=&quot;font-size: 15.092px;&quot;&gt;&lt;b&gt;&lt;br&gt;&lt;/b&gt;&lt;/span&gt;&lt;/font&gt;&lt;/div&gt;&lt;div style=&quot;&quot;&gt;&lt;font face=&quot;sans-serif&quot; color=&quot;rgba(0, 0, 0, 0)&quot;&gt;&lt;span style=&quot;font-size: 15.092px;&quot;&gt;&lt;b&gt;&lt;br&gt;&lt;/b&gt;&lt;/span&gt;&lt;/font&gt;&lt;/div&gt;&lt;div style=&quot;&quot;&gt;&lt;font face=&quot;sans-serif&quot; color=&quot;rgba(0, 0, 0, 0)&quot;&gt;&lt;span style=&quot;font-size: 15.092px;&quot;&gt;&lt;b&gt;&lt;br&gt;&lt;/b&gt;&lt;/span&gt;&lt;/font&gt;&lt;/div&gt;&lt;font face=&quot;sans-serif&quot;&gt;&lt;font color=&quot;rgba(0, 0, 0, 0)&quot;&gt;&lt;span style=&quot;font-size: 15.092px;&quot;&gt;  ̃&lt;/span&gt;&lt;/font&gt;&lt;div style=&quot;&quot;&gt;&lt;font color=&quot;#ba0000&quot;&gt;&lt;span style=&quot;font-size: 15.092px;&quot;&gt;&lt;br&gt;&lt;/span&gt;&lt;/font&gt;&lt;/div&gt;&lt;div style=&quot;&quot;&gt;&lt;font color=&quot;#ba0000&quot;&gt;&lt;span style=&quot;font-size: 15.092px;&quot;&gt;&lt;br&gt;&lt;/span&gt;&lt;/font&gt;&lt;/div&gt;&lt;/font&gt;&lt;/span&gt;&lt;span style=&quot;box-sizing: border-box; color: transparent; cursor: text; position: absolute; transform-origin: 0px 0px; background-color: rgb(255, 255, 255); left: 279.536px; top: 924.756px; font-size: 15.092px; font-family: sans-serif; transform: scaleX(0.910067); line-height: 90%;&quot; dir=&quot;ltr&quot; role=&quot;presentation&quot;&gt;ao do texto&lt;/span&gt;" style="text;html=1;strokeColor=none;fillColor=none;spacing=5;spacingTop=-20;whiteSpace=wrap;overflow=hidden;rounded=0;align=left;" parent="1" vertex="1">
          <mxGeometry x="320" y="310" width="190" height="100" as="geometry" />
        </mxCell>
        <mxCell id="HYtzGYNjOnpyztXT4S6m-1" value="&lt;h1 style=&quot;line-height: 90%;&quot;&gt;&lt;font style=&quot;font-size: 18px;&quot;&gt;Desenvolvimento do Modelo&lt;/font&gt;&lt;/h1&gt;&lt;p style=&quot;text-align: justify; line-height: 90%;&quot;&gt;&lt;b&gt;Desenvolver um modelo capaz coletar informações de fontes heterogêneas e&amp;nbsp;auxiliar na obtenção de informações relevantes&lt;/b&gt;&lt;/p&gt;&lt;span style=&quot;box-sizing: border-box; cursor: text; position: absolute; transform-origin: 0px 0px; background-color: rgb(255, 255, 255); left: 273.68px; top: 924.756px; transform: scaleX(0.931722); line-height: 100%;&quot; dir=&quot;ltr&quot; role=&quot;presentation&quot;&gt;&lt;b style=&quot;color: transparent; font-family: sans-serif; font-size: 15.092px;&quot;&gt; ̧&lt;/b&gt;&lt;div style=&quot;text-align: justify;&quot;&gt;&lt;font face=&quot;sans-serif&quot; color=&quot;rgba(0, 0, 0, 0)&quot;&gt;&lt;span style=&quot;font-size: 15.092px;&quot;&gt;&lt;b&gt;&lt;br&gt;&lt;/b&gt;&lt;/span&gt;&lt;/font&gt;&lt;/div&gt;&lt;font face=&quot;sans-serif&quot; color=&quot;rgba(0, 0, 0, 0)&quot;&gt;&lt;span style=&quot;font-size: 15.092px;&quot;&gt;  ̃&lt;/span&gt;&lt;/font&gt;&lt;/span&gt;&lt;span style=&quot;box-sizing: border-box; color: transparent; cursor: text; position: absolute; transform-origin: 0px 0px; background-color: rgb(255, 255, 255); left: 279.536px; top: 924.756px; font-size: 15.092px; font-family: sans-serif; transform: scaleX(0.910067); line-height: 100%;&quot; dir=&quot;ltr&quot; role=&quot;presentation&quot;&gt;ao do texto&lt;/span&gt;" style="text;html=1;strokeColor=none;fillColor=none;spacing=5;spacingTop=-20;whiteSpace=wrap;overflow=hidden;rounded=0;" parent="1" vertex="1">
          <mxGeometry x="540" y="310" width="210" height="130" as="geometry" />
        </mxCell>
        <mxCell id="VoEPPyW-J9t-Lt_fE6yJ-3" value="" style="edgeStyle=orthogonalEdgeStyle;rounded=0;orthogonalLoop=1;jettySize=auto;html=1;" edge="1" parent="1" source="HYtzGYNjOnpyztXT4S6m-3" target="HYtzGYNjOnpyztXT4S6m-1">
          <mxGeometry relative="1" as="geometry">
            <Array as="points">
              <mxPoint x="780" y="374" />
              <mxPoint x="780" y="374" />
            </Array>
          </mxGeometry>
        </mxCell>
        <mxCell id="HYtzGYNjOnpyztXT4S6m-3" value="&lt;h1 style=&quot;line-height: 90%;&quot;&gt;&lt;font style=&quot;font-size: 18px;&quot;&gt;Interação com o ChatGPT&lt;/font&gt;&lt;/h1&gt;&lt;p style=&quot;text-align: justify; line-height: 90%;&quot;&gt;&lt;b&gt;A interação será feita através de uma API disponibilizada pela Open.ai permitindo que o sistema se torne mais automatizado e eficiente&lt;/b&gt;&lt;/p&gt;&lt;span style=&quot;box-sizing: border-box; cursor: text; position: absolute; transform-origin: 0px 0px; background-color: rgb(255, 255, 255); left: 273.68px; top: 924.756px; transform: scaleX(0.931722); line-height: 90%;&quot; dir=&quot;ltr&quot; role=&quot;presentation&quot;&gt;&lt;b style=&quot;color: transparent; font-family: sans-serif; font-size: 15.092px;&quot;&gt; ̧&lt;/b&gt;&lt;div style=&quot;text-align: justify;&quot;&gt;&lt;font face=&quot;sans-serif&quot; color=&quot;rgba(0, 0, 0, 0)&quot;&gt;&lt;span style=&quot;font-size: 15.092px;&quot;&gt;&lt;b&gt;&lt;br&gt;&lt;/b&gt;&lt;/span&gt;&lt;/font&gt;&lt;/div&gt;&lt;font face=&quot;sans-serif&quot; color=&quot;rgba(0, 0, 0, 0)&quot;&gt;&lt;span style=&quot;font-size: 15.092px;&quot;&gt;  ̃&lt;/span&gt;&lt;/font&gt;&lt;/span&gt;&lt;span style=&quot;box-sizing: border-box; color: transparent; cursor: text; position: absolute; transform-origin: 0px 0px; background-color: rgb(255, 255, 255); left: 279.536px; top: 924.756px; font-size: 15.092px; font-family: sans-serif; transform: scaleX(0.910067); line-height: 90%;&quot; dir=&quot;ltr&quot; role=&quot;presentation&quot;&gt;ao do texto&lt;/span&gt;" style="text;html=1;strokeColor=none;fillColor=none;spacing=5;spacingTop=-20;whiteSpace=wrap;overflow=hidden;rounded=0;" parent="1" vertex="1">
          <mxGeometry x="810" y="312.5" width="210" height="127.5" as="geometry" />
        </mxCell>
      </root>
    </mxGraphModel>
  </diagram>
</mxfile>
